<svg width="19" height="20" viewBox="0 0 19 20" fill="none" xmlns="http://www.w3.org/2000/svg">
<path d="M15.7144 12.8572H11.4287V11.4286H15.7144V12.8572ZM18.5716 18.5714H14.2859V17.1429H18.5716V18.5714ZM17.143 15.7143H12.8573V14.2857H17.143V15.7143Z" fill="#4a4a4a"/>
<path d="M9.28813 12.8571C9.2831 12.2544 9.12235 11.6633 8.82148 11.141C8.52061 10.6187 8.08985 10.1831 7.57099 9.87643L12.8574 0.714286L11.6217 0L6.20956 9.37571C5.54534 9.22733 4.85453 9.24785 4.20029 9.4354C3.54605 9.62295 2.94928 9.97154 2.46456 10.4493C-0.209726 13.0286 -0.00258298 19.0586 0.00741703 19.3143C0.0148007 19.4987 0.0933028 19.6732 0.226465 19.801C0.359628 19.9288 0.53711 20.0001 0.721703 20H11.4296C11.5795 20 11.7256 19.9528 11.8472 19.8652C11.9688 19.7775 12.0598 19.6538 12.1072 19.5116C12.1546 19.3694 12.1561 19.2158 12.1114 19.0727C12.0667 18.9296 11.9781 18.8042 11.8581 18.7143C9.32956 16.8171 9.28813 12.8957 9.28813 12.8571ZM5.66456 10.7121C6.23625 10.7184 6.78352 10.9449 7.19249 11.3444C7.60145 11.7439 7.84064 12.2858 7.86027 12.8571C7.86027 12.8843 7.8617 13.0057 7.87242 13.1921L3.65813 11.3179C3.93573 11.0889 4.25607 10.9175 4.60052 10.8135C4.94498 10.7095 5.30667 10.6751 5.66456 10.7121ZM8.17885 18.5714C7.60791 17.9901 7.24398 17.2371 7.14313 16.4286H5.71456C5.76572 17.1888 6.00318 17.9247 6.40599 18.5714H4.81813C4.52438 17.6444 4.34566 16.6849 4.28599 15.7143H2.85742C2.90348 16.682 3.0629 17.6409 3.33242 18.5714H1.42885C1.45099 17.26 1.63599 14.3629 2.7167 12.4621L8.09742 14.855C8.35594 16.1974 8.9071 17.4663 9.7117 18.5714H8.17885Z" fill="#4a4a4a"/>
</svg>
