<svg width="14" height="20" viewBox="0 0 14 20" fill="none" xmlns="http://www.w3.org/2000/svg">
<path d="M1.37998 20H8.01766C8.41584 20.0002 8.80934 19.9142 9.17108 19.7478C9.53282 19.5814 9.85422 19.3386 10.1132 19.0361L13.6335 14.9293C13.7072 14.8434 13.7587 14.7408 13.7834 14.6304C13.8081 14.5199 13.8052 14.4051 13.7751 14.2961C13.7449 14.187 13.6885 14.087 13.6106 14.0049C13.5327 13.9228 13.4358 13.8611 13.3285 13.8253L11.9706 13.3727C11.6424 13.266 11.293 13.2419 10.9532 13.3024C10.6135 13.3629 10.2939 13.5063 10.0228 13.7197L7.82516 15.4771L7.39943 14.625C7.17136 14.1657 6.81922 13.7794 6.3829 13.5099C5.94657 13.2404 5.4435 13.0984 4.93066 13.1001H1.37998C0.618919 13.1001 0 13.7191 0 14.4801V18.62C0 19.3811 0.618919 20 1.37998 20ZM1.37998 14.4801H4.93066C5.45712 14.4801 5.92976 14.772 6.16505 15.2426L6.47347 15.8601H3.44994V17.2401H7.59953C7.70569 17.2387 7.81007 17.2127 7.90451 17.1642L7.90658 17.1635L7.90934 17.1621H7.91141L7.91279 17.1614H7.91555L7.91623 17.1607C7.92382 17.1628 7.91831 17.16 7.91831 17.16C7.92658 17.16 7.91968 17.1593 7.91968 17.1593H7.92038L7.92176 17.1586L7.92383 17.158L7.92521 17.1573L7.92659 17.1566L7.92866 17.1559L7.93004 17.1552L7.93141 17.1545L7.93349 17.1531L7.93486 17.1524L7.93624 17.1517L7.93831 17.1511L7.93969 17.1504H7.94039L7.94176 17.1497L7.94383 17.149L7.94521 17.1483C7.9528 17.1476 7.94728 17.1476 7.94728 17.1476L7.94867 17.1469C7.97525 17.1309 8.00062 17.1129 8.02456 17.0931L10.8853 14.8044C11.0653 14.6609 11.3151 14.616 11.5338 14.6892L11.9182 14.8175L9.06645 18.1453C8.93527 18.2943 8.77392 18.4136 8.59311 18.4955C8.41229 18.5773 8.21614 18.6198 8.01766 18.62H1.37998V14.4801Z" fill="#4a4a4a"/>
<circle cx="7.24483" cy="6.55489" r="5.55489" stroke="#4a4a4a" stroke-width="2"/>
<path d="M7.01514 8.92546V3.47091H7.36457V8.92546H7.01514ZM7.77366 5.38C7.7623 5.23796 7.70903 5.12716 7.61386 5.04762C7.52011 4.96807 7.37735 4.9283 7.18559 4.9283C7.06343 4.9283 6.96329 4.94321 6.88517 4.97304C6.80846 5.00145 6.75164 5.04052 6.71471 5.09023C6.67778 5.13995 6.6586 5.19677 6.65718 5.26069C6.65434 5.31324 6.66357 5.36083 6.68488 5.40344C6.70761 5.44464 6.74312 5.48228 6.79142 5.51637C6.83971 5.54904 6.9015 5.57887 6.97678 5.60586C7.05207 5.63285 7.14156 5.65699 7.24525 5.6783L7.6032 5.755C7.84468 5.80614 8.05136 5.87361 8.22323 5.95742C8.39511 6.04123 8.53573 6.13995 8.64511 6.25358C8.75448 6.3658 8.83474 6.49222 8.88588 6.63285C8.93843 6.77347 8.96542 6.92688 8.96684 7.09307C8.96542 7.38 8.89369 7.6229 8.75164 7.82177C8.6096 8.02063 8.40647 8.17191 8.14227 8.2756C7.87948 8.37929 7.56343 8.43114 7.19411 8.43114C6.81485 8.43114 6.48389 8.37503 6.20122 8.26282C5.91997 8.1506 5.70122 7.97802 5.54497 7.74506C5.39014 7.51069 5.31201 7.21097 5.31059 6.84591H6.43559C6.44269 6.97944 6.47607 7.09165 6.53573 7.18256C6.59539 7.27347 6.6792 7.34236 6.78715 7.38924C6.89653 7.43611 7.0265 7.45955 7.17707 7.45955C7.30349 7.45955 7.40931 7.44393 7.49454 7.41268C7.57977 7.38143 7.6444 7.3381 7.68843 7.2827C7.73247 7.22731 7.75519 7.1641 7.75661 7.09307C7.75519 7.02631 7.73318 6.96807 7.69056 6.91836C7.64937 6.86722 7.58119 6.82177 7.48602 6.78199C7.39085 6.7408 7.2623 6.70245 7.10036 6.66694L6.6657 6.57319C6.27934 6.48938 5.97465 6.34947 5.75164 6.15344C5.53005 5.956 5.41997 5.68682 5.42139 5.34591C5.41997 5.06893 5.49383 4.82674 5.64298 4.61935C5.79355 4.41054 6.00164 4.2479 6.26727 4.13143C6.53431 4.01495 6.84042 3.95671 7.18559 3.95671C7.53786 3.95671 7.84255 4.01566 8.09965 4.13356C8.35676 4.25145 8.55491 4.41765 8.69411 4.63214C8.83474 4.8452 8.90576 5.09449 8.90718 5.38H7.77366Z" fill="#4a4a4a"/>
</svg>
