<svg width="20" height="16" viewBox="0 0 20 16" fill="none" xmlns="http://www.w3.org/2000/svg">
<path d="M9.99984 6.66667C9.11578 6.66667 8.26794 6.31548 7.64281 5.69036C7.01769 5.06523 6.6665 4.21739 6.6665 3.33333C6.6665 2.44928 7.01769 1.60143 7.64281 0.976311C8.26794 0.351189 9.11578 0 9.99984 0C10.8839 0 11.7317 0.351189 12.3569 0.976311C12.982 1.60143 13.3332 2.44928 13.3332 3.33333C13.3332 4.21739 12.982 5.06523 12.3569 5.69036C11.7317 6.31548 10.8839 6.66667 9.99984 6.66667ZM9.99984 1.33333C8.89317 1.33333 7.99984 2.22667 7.99984 3.33333C7.99984 4.44 8.89317 5.33333 9.99984 5.33333C11.1065 5.33333 11.9998 4.44 11.9998 3.33333C11.9998 2.22667 11.1065 1.33333 9.99984 1.33333Z" fill="#4a4a4a"/>
<path d="M18 12C17.6267 12 17.3333 11.7067 17.3333 11.3333C17.3333 10.96 17.6267 10.6667 18 10.6667C18.3733 10.6667 18.6667 10.3733 18.6667 10C18.6667 9.11595 18.3155 8.2681 17.6904 7.64298C17.0652 7.01786 16.2174 6.66667 15.3333 6.66667H14C13.6267 6.66667 13.3333 6.37333 13.3333 6C13.3333 5.62667 13.6267 5.33333 14 5.33333C15.1067 5.33333 16 4.44 16 3.33333C16 2.22667 15.1067 1.33333 14 1.33333C13.6267 1.33333 13.3333 1.04 13.3333 0.666667C13.3333 0.293333 13.6267 0 14 0C14.8841 0 15.7319 0.351189 16.357 0.976311C16.9821 1.60143 17.3333 2.44928 17.3333 3.33333C17.3333 4.16 17.04 4.90667 16.5333 5.49333C18.52 6.02667 20 7.84 20 10C20 11.1067 19.1067 12 18 12ZM2 12C0.893333 12 0 11.1067 0 10C0 7.84 1.46667 6.02667 3.46667 5.49333C2.97333 4.90667 2.66667 4.16 2.66667 3.33333C2.66667 2.44928 3.01786 1.60143 3.64298 0.976311C4.2681 0.351189 5.11595 0 6 0C6.37333 0 6.66667 0.293333 6.66667 0.666667C6.66667 1.04 6.37333 1.33333 6 1.33333C4.89333 1.33333 4 2.22667 4 3.33333C4 4.44 4.89333 5.33333 6 5.33333C6.37333 5.33333 6.66667 5.62667 6.66667 6C6.66667 6.37333 6.37333 6.66667 6 6.66667H4.66667C3.78261 6.66667 2.93477 7.01786 2.30964 7.64298C1.68452 8.2681 1.33333 9.11595 1.33333 10C1.33333 10.3733 1.62667 10.6667 2 10.6667C2.37333 10.6667 2.66667 10.96 2.66667 11.3333C2.66667 11.7067 2.37333 12 2 12ZM14 16H6C4.89333 16 4 15.1067 4 14V12.6667C4 10.0933 6.09333 8 8.66667 8H11.3333C13.9067 8 16 10.0933 16 12.6667V14C16 15.1067 15.1067 16 14 16ZM8.66667 9.33333C7.78261 9.33333 6.93477 9.68452 6.30964 10.3096C5.68452 10.9348 5.33333 11.7826 5.33333 12.6667V14C5.33333 14.3733 5.62667 14.6667 6 14.6667H14C14.3733 14.6667 14.6667 14.3733 14.6667 14V12.6667C14.6667 11.7826 14.3155 10.9348 13.6904 10.3096C13.0652 9.68452 12.2174 9.33333 11.3333 9.33333H8.66667Z" fill="#4a4a4a"/>
</svg>
